<svg id="Layer_1" data-name="Layer 1" xmlns="http://www.w3.org/2000/svg" xmlns:xlink="http://www.w3.org/1999/xlink" viewBox="0 0 170 41.19"><defs><style>.cls-1{fill:#6439ff;}.cls-2{fill:#fff;}.cls-3{fill:#00ffb3;}.cls-4{fill:url(#linear-gradient);}.cls-5{fill:url(#linear-gradient-2);}</style><linearGradient id="linear-gradient" x1="22.92" y1="27.03" x2="15.18" y2="27.03" gradientTransform="matrix(1, 0, 0, -1, 0, 44.26)" gradientUnits="userSpaceOnUse"><stop offset="0.16" stop-color="#6439ff"/><stop offset="0.22" stop-color="#5061f0"/><stop offset="0.29" stop-color="#3b8ae0"/><stop offset="0.37" stop-color="#29aed2"/><stop offset="0.45" stop-color="#1accc7"/><stop offset="0.54" stop-color="#0ee2be"/><stop offset="0.63" stop-color="#06f3b8"/><stop offset="0.73" stop-color="#02fcb4"/><stop offset="0.88" stop-color="#00ffb3"/></linearGradient><linearGradient id="linear-gradient-2" x1="15.14" y1="25.35" x2="19.39" y2="13.48" gradientTransform="matrix(1, 0, 0, -1, 0, 44.26)" gradientUnits="userSpaceOnUse"><stop offset="0" stop-color="#fff" stop-opacity="0"/><stop offset="0.02" stop-color="#fff" stop-opacity="0.04"/><stop offset="0.15" stop-color="#fff" stop-opacity="0.32"/><stop offset="0.27" stop-color="#fff" stop-opacity="0.56"/><stop offset="0.39" stop-color="#fff" stop-opacity="0.75"/><stop offset="0.48" stop-color="#fff" stop-opacity="0.89"/><stop offset="0.57" stop-color="#fff" stop-opacity="0.97"/><stop offset="0.62" stop-color="#fff"/><stop offset="0.95" stop-color="#fff"/></linearGradient></defs><g id="Layer_2" data-name="Layer 2"><g id="IOL_-_originales" data-name="IOL - originales"><circle class="cls-1" cx="20.59" cy="20.59" r="20.59"/><rect class="cls-2" x="6.67" y="20.46" width="3.84" height="7.34" rx="0.61"/><rect class="cls-2" x="30.68" y="13.09" width="3.84" height="14.71" rx="0.61"/><circle class="cls-3" cx="8.59" cy="15.51" r="2.45"/><path class="cls-4" d="M20.59,17.07v-3.6A7.53,7.53,0,0,0,13.07,21h3.59A3.93,3.93,0,0,1,20.59,17.07Z" transform="translate(0 -0.41)"/><path class="cls-2" d="M20.59,13.47v3.6a3.94,3.94,0,1,1,0,7.87h-.18v3.58h.18a7.53,7.53,0,0,0,0-15Z" transform="translate(0 -0.41)"/><path class="cls-5" d="M16.66,21H13.07a7.51,7.51,0,0,0,7.52,7.52V24.93A3.93,3.93,0,0,1,16.66,21Z" transform="translate(0 -0.41)"/><path class="cls-1" d="M61.31,28.21a.77.77,0,0,1-.79-.76V22a2.21,2.21,0,0,0-.6-1.7,2.14,2.14,0,0,0-1.72-.67,2.25,2.25,0,0,0-1.76.69,2.75,2.75,0,0,0-.66,2v5.18a.77.77,0,0,1-.76.78h-.93a.76.76,0,0,1-.79-.75V18.1a.77.77,0,0,1,.75-.79h.88a.75.75,0,0,1,.79.7v.13a4.41,4.41,0,0,1,.88-.6,4.65,4.65,0,0,1,2.08-.43,4,4,0,0,1,3.19,1.33A5,5,0,0,1,63,21.86v5.57a.76.76,0,0,1-.75.79h-.93Z" transform="translate(0 -0.41)"/><path class="cls-1" d="M68.75,28.21a1.08,1.08,0,0,1-1-.69l-3.29-9.14a.88.88,0,0,1,0-.32.67.67,0,0,1,.22-.53.69.69,0,0,1,.51-.22H66a.86.86,0,0,1,.77.5l2.36,7,2.33-7a.76.76,0,0,1,.28-.36.82.82,0,0,1,.51-.17h.9a.74.74,0,0,1,.51.21.75.75,0,0,1,.22.54l0,.26-3.28,9.19a1.08,1.08,0,0,1-1,.69Z" transform="translate(0 -0.41)"/><path class="cls-1" d="M79.91,28.42a4.57,4.57,0,0,1-3.45-1.36A5.46,5.46,0,0,1,75,23.43l0-.67,0-.67a5.54,5.54,0,0,1,1.41-3.61,4.6,4.6,0,0,1,3.46-1.37,4.55,4.55,0,0,1,3.61,1.5,5.82,5.82,0,0,1,1.27,4v.35a.76.76,0,0,1-.75.78,0,0,0,0,1,0,0H77.52a3.25,3.25,0,0,0,.7,1.82,2,2,0,0,0,1.67.78A2.52,2.52,0,0,0,81.21,26a3,3,0,0,0,.79-.68,1.29,1.29,0,0,1,.39-.38,1.18,1.18,0,0,1,.49-.08h.86a.82.82,0,0,1,.51.17.64.64,0,0,1,.26.52,2.05,2.05,0,0,1-.61,1.27,4.93,4.93,0,0,1-1.62,1.13A5.71,5.71,0,0,1,79.91,28.42Zm2.41-6.72A2.89,2.89,0,0,0,81.66,20a2.19,2.19,0,0,0-1.75-.75,2.14,2.14,0,0,0-1.75.74,2.89,2.89,0,0,0-.64,1.75Z" transform="translate(0 -0.41)"/><path class="cls-1" d="M87.71,28.21a.77.77,0,0,1-.79-.76V18.12a.81.81,0,0,1,.21-.57.74.74,0,0,1,.57-.24h.82a.81.81,0,0,1,.59.22.79.79,0,0,1,.22.54,3.6,3.6,0,0,1,2.4-.76h.77a.75.75,0,0,1,.79.7v.82a.76.76,0,0,1-.21.55.75.75,0,0,1-.58.24H91.38a2.13,2.13,0,0,0-2,2.2v5.61a.71.71,0,0,1-.24.57.87.87,0,0,1-.57.22Z" transform="translate(0 -0.41)"/><path class="cls-1" d="M98.48,28.21c-2.25,0-3.38-1.27-3.38-3.78V15.12a.76.76,0,0,1,.2-.56.77.77,0,0,1,.57-.23h.86a.76.76,0,0,1,.79.75v2.23h2.11a.78.78,0,0,1,.79.75v.72a.76.76,0,0,1-.24.57.81.81,0,0,1-.55.21H97.52v4.75a2.54,2.54,0,0,0,.27,1.33.88.88,0,0,0,.83.36h1.2a.74.74,0,0,1,.77.79v.65a.75.75,0,0,1-.2.55.76.76,0,0,1-.57.24Z" transform="translate(0 -0.41)"/><path class="cls-1" d="M103.56,28.21a.76.76,0,0,1-.78-.76V18.1a.75.75,0,0,1,.79-.79h.87a.78.78,0,0,1,.79.75v9.37a.79.79,0,0,1-.76.79h-.91Z" transform="translate(0 -0.41)"/><path class="cls-1" d="M104,16.34a1.42,1.42,0,1,1,1.42-1.42A1.41,1.41,0,0,1,104,16.34Z" transform="translate(0 -0.41)"/><path class="cls-1" d="M49.17,28.21a.77.77,0,0,1-.79-.75V18.1a.77.77,0,0,1,.75-.79H50a.77.77,0,0,1,.79.76v9.36a.77.77,0,0,1-.77.78h-.88Z" transform="translate(0 -0.41)"/><path class="cls-1" d="M49.6,16.34A1.42,1.42,0,1,1,51,14.92h0A1.42,1.42,0,0,1,49.6,16.34Z" transform="translate(0 -0.41)"/><path class="cls-1" d="M108.49,28.21a.77.77,0,0,1-.79-.75V18.12a.76.76,0,0,1,.22-.57.71.71,0,0,1,.56-.24h.83a.77.77,0,0,1,.58.22.8.8,0,0,1,.23.54,3.58,3.58,0,0,1,2.4-.76h.77a.75.75,0,0,1,.79.7v.82a.81.81,0,0,1-.21.55.75.75,0,0,1-.58.24h-1.12a2.11,2.11,0,0,0-2,2.2v5.61a.71.71,0,0,1-.24.57.87.87,0,0,1-.57.22Z" transform="translate(0 -0.41)"/><path class="cls-1" d="M117,27.12a5.21,5.21,0,0,1-1.27-3.46l0-.88,0-.89A5.2,5.2,0,0,1,117,18.44a5,5,0,0,1,6.81,0,5.1,5.1,0,0,1,1.27,3.45c0,.14,0,.44,0,.89s0,.74,0,.88a5.16,5.16,0,0,1-1.27,3.46,5,5,0,0,1-6.81,0Zm5.81-.84a4.05,4.05,0,0,0,1-2.72c0-.14,0-.4,0-.78a7.36,7.36,0,0,0,0-.78,4,4,0,0,0-1-2.72,3.51,3.51,0,0,0-4.82,0A4,4,0,0,0,117,22l0,.78,0,.78a4.05,4.05,0,0,0,1,2.72,3.51,3.51,0,0,0,4.82,0Z" transform="translate(0 -0.41)"/><path class="cls-1" d="M127.79,28.12a.46.46,0,0,1-.12-.34v-10a.43.43,0,0,1,.4-.46h.42a.43.43,0,0,1,.46.4v1a4.42,4.42,0,0,1,1.44-1.24,4.69,4.69,0,0,1,2.09-.42,3.94,3.94,0,0,1,3.18,1.33,5.11,5.11,0,0,1,1.11,3.4v6a.43.43,0,0,1-.4.46H136a.43.43,0,0,1-.46-.4V21.93a3.91,3.91,0,0,0-.83-2.65,3,3,0,0,0-2.39-.94,3.18,3.18,0,0,0-2.42,1,3.66,3.66,0,0,0-.9,2.63V27.8a.44.44,0,0,1-.41.46h-.41A.48.48,0,0,1,127.79,28.12Z" transform="translate(0 -0.41)"/><path class="cls-1" d="M140.15,28.12a.43.43,0,0,1-.13-.34V14a.43.43,0,0,1,.4-.46h.42a.44.44,0,0,1,.46.41V27.77a.44.44,0,0,1-.4.47h-.42A.5.5,0,0,1,140.15,28.12Z" transform="translate(0 -0.41)"/><path class="cls-1" d="M144.69,28.15a.46.46,0,0,1-.13-.33v-10a.44.44,0,0,1,.4-.46h.42a.44.44,0,0,1,.46.41v10.1a.45.45,0,0,1-.41.46H145A.46.46,0,0,1,144.69,28.15Z" transform="translate(0 -0.41)"/><path class="cls-1" d="M149.22,28.12a.47.47,0,0,1-.13-.34v-10a.44.44,0,0,1,.41-.46h.41a.44.44,0,0,1,.47.4v1a4.42,4.42,0,0,1,1.44-1.24,4.69,4.69,0,0,1,2.09-.42,4,4,0,0,1,3.18,1.33,5.11,5.11,0,0,1,1.11,3.4v6a.43.43,0,0,1-.4.46h-.42a.45.45,0,0,1-.47-.41.09.09,0,0,1,0-.05V21.93a3.87,3.87,0,0,0-.84-2.65,3,3,0,0,0-2.38-.94,3.16,3.16,0,0,0-2.42,1,3.57,3.57,0,0,0-.9,2.62v5.86a.44.44,0,0,1-.41.46h-.41A.42.42,0,0,1,149.22,28.12Z" transform="translate(0 -0.41)"/><path class="cls-1" d="M162.14,27.14a5.57,5.57,0,0,1-1.39-3.52l0-.84,0-.84a5.69,5.69,0,0,1,1.38-3.52,4.15,4.15,0,0,1,3.22-1.32,4.23,4.23,0,0,1,3.42,1.45,6,6,0,0,1,1.23,4v.32a.41.41,0,0,1-.14.34.46.46,0,0,1-.34.12H162v.21a4.66,4.66,0,0,0,.45,1.84,3.56,3.56,0,0,0,1.15,1.37,2.87,2.87,0,0,0,1.72.51,3.46,3.46,0,0,0,1.89-.45,3.41,3.41,0,0,0,1-.91,1.43,1.43,0,0,1,.28-.32.7.7,0,0,1,.35-.06h.33a.46.46,0,0,1,.32.1.37.37,0,0,1,.13.28,1.74,1.74,0,0,1-.57,1.06A4.69,4.69,0,0,1,167.59,28a5.34,5.34,0,0,1-2.23.46A4.16,4.16,0,0,1,162.14,27.14Zm6.59-5V22a3.92,3.92,0,0,0-.92-2.67,3.1,3.1,0,0,0-2.46-1.05,3,3,0,0,0-2.43,1.05A4,4,0,0,0,162,22v.09Z" transform="translate(0 -0.41)"/><circle class="cls-1" cx="145.2" cy="14.06" r="0.96"/></g></g></svg>